<?xml version="1.0" encoding="utf-8"?>
<!-- Generator: Adobe Illustrator 23.1.0, SVG Export Plug-In . SVG Version: 6.00 Build 0)  -->
<svg version="1.1" id="Layer_1" xmlns="http://www.w3.org/2000/svg" xmlns:xlink="http://www.w3.org/1999/xlink" x="0px" y="0px"
	 viewBox="0 0 698 698" style="enable-background:new 0 0 698 698;" xml:space="preserve">
<style type="text/css">
	.st0{opacity:0.5;}
	.st1{fill:url(#SVGID_1_);}
	.st2{fill:#F5F5F5;}
	.st3{fill:#FEC79F;}
	.st4{fill:#53C1B6;}
	.st5{fill:#232323;}
	.st6{fill:#3BB5AA;}
	.st7{fill:#6D3B22;}
	.st8{fill:#87DDD3;}
	.st9{fill:#473A3D;}
	.st10{fill:#FFFFFF;}
	.st11{fill:#D9F4F1;}
</style>
<title>profile pic</title>
<g class="st0">
	
		<linearGradient id="SVGID_1_" gradientUnits="userSpaceOnUse" x1="349" y1="-9.094947e-13" x2="349" y2="698" gradientTransform="matrix(1 0 0 -1 0 698)">
		<stop  offset="0" style="stop-color:#808080;stop-opacity:0.25"/>
		<stop  offset="0.54" style="stop-color:#808080;stop-opacity:0.12"/>
		<stop  offset="1" style="stop-color:#808080;stop-opacity:0.1"/>
	</linearGradient>
	<circle class="st1" cx="349" cy="349" r="349"/>
</g>
<circle class="st2" cx="349.7" cy="346.8" r="341.6"/>
<g id="XMLID_167_">
	<rect id="XMLID_138_" x="323.6" y="364.1" class="st3" width="38" height="69.6"/>
	<path id="XMLID_137_" class="st3" d="M497,217.3c-2-0.2-3.9-0.3-5.8-0.2C488.1,114,422.8,78,342.6,78C262.4,78,197.1,113,194,217.2
		c-1.9-0.1-3.9-0.1-5.8,0.2c-16.7,2.1-27.8,17.8-24.6,35c3.1,17.2,19.2,29.5,36,27.3c0.4-0.1,0.9-0.2,1.3-0.2
		c19.1,66.8,75.4,92.6,141.8,92.6s122.7-25.8,141.8-92.6c0.4,0.1,0.9,0.2,1.3,0.2c16.7,2.1,32.8-10.1,36-27.3
		C524.8,235.1,513.8,219.5,497,217.3z"/>
	<path id="XMLID_81_" class="st4" d="M342.5,696.4c34.1,0,66.8-4.6,97.6-13V428.7c0-13.5-43.6-24.5-97.4-24.5s-97.4,11-97.4,24.5
		v254.8C275.8,691.9,308.5,696.4,342.5,696.4z"/>
	<ellipse id="XMLID_118_" class="st5" cx="264" cy="245.7" rx="16.3" ry="20.5"/>
	<path id="XMLID_117_" class="st5" d="M240.8,208.3c0,0,14.3-18.8,34.8-8.8c0,0,8.2-6.1-2.3-9.7S252.5,190.3,240.8,208.3z"/>
	<ellipse id="XMLID_116_" class="st5" cx="421.2" cy="245.7" rx="16.3" ry="20.5"/>
	<path id="XMLID_115_" class="st5" d="M444.4,208.3c0,0-14.3-18.8-34.8-8.8c0,0-8.2-6.1,2.3-9.7S432.7,190.3,444.4,208.3z"/>
	<path id="XMLID_126_" class="st6" d="M207.8,671c1.4-21.2,4.5-65.9,7.4-83.2c3.9-23,30-60.5,30-60.5v-99.2
		c-32,42.9-59.6,116.3-64.1,149.6c-3.1,22.9-5.5,54.3-7.1,77.7C184.8,661.1,196.1,666.4,207.8,671z"/>
	<path id="XMLID_129_" class="st6" d="M477.4,670.9c11.7-4.7,23-10,33.8-15.8c-1.5-23.4-3.9-54.6-7.1-77.5
		c-4.6-33.3-32.2-106.7-64.1-149.6v99.2c0,0,26.1,37.5,30,60.5C473,605.1,476.1,649.7,477.4,670.9z"/>
	<path id="XMLID_122_" class="st3" d="M310.7,405.6l31.8,62.8l32-62.8c-10-0.9-20.7-1.4-31.9-1.4
		C331.4,404.2,320.7,404.7,310.7,405.6z"/>
	<path id="XMLID_120_" class="st7" d="M190.2,163.4c-1.1,12.8-0.3,30.1,3.8,53.7l2.7,14.8l8.5-5.1c0,0,11.2-36.8,8.9-68.6
		C203.2,160.2,195.3,162.1,190.2,163.4z"/>
	<path id="XMLID_121_" class="st7" d="M471.1,158.3c-2.3,31.8,8.9,68.6,8.9,68.6l8.5,5.1l2.7-14.8c4.1-23.6,4.8-40.9,3.8-53.7
		C489.9,162.1,482.1,160.2,471.1,158.3z"/>
	<path id="XMLID_101_" class="st8" d="M502.2,165.5c-5.8-1.5-49.1-16.4-159.6-16.4v0c0,0,0,0-0.1,0c0,0,0,0-0.1,0v0
		c-110.5,0-153.8,15-159.6,16.4c-8.1,2-4.8,12.6,2.5,9.8c14.3-5.5,55.3-17,157.1-17c101.9,0,142.8,11.4,157.1,17
		C506.9,178.1,510.3,167.5,502.2,165.5z"/>
	<path id="XMLID_119_" class="st4" d="M495.4,112.5c-22.5-37-78.5-48.9-152.8-48.9v0c0,0,0,0-0.1,0c0,0,0,0-0.1,0v0
		c-74.3,0-130.4,11.9-152.8,48.9c-12.2,20.1-6.8,53-6.8,53c5.8-1.5,49.2-16.4,159.7-16.4c110.5,0,153.9,15,159.7,16.4
		C502.2,165.5,507.7,132.6,495.4,112.5z"/>
	<path id="XMLID_100_" class="st9" d="M296.3,314.7c-0.2,0.9-0.4,1.9-0.4,2.8c0,12.8,20.9,23.2,46.6,23.2
		c25.8,0,46.6-10.4,46.6-23.2c0-1-0.1-1.9-0.4-2.8H296.3z"/>
	<path id="XMLID_102_" class="st10" d="M296.3,314.7c-0.2,0.9-0.4,1.9-0.4,2.8c0,0.4,0.1,0.8,0.1,1.2c9.8,2.4,28.2,4.1,49.2,4.1
		c17.5,0,33.2-1.1,43.6-2.9c0.2-0.8,0.2-1.6,0.2-2.4c0-1-0.1-1.9-0.4-2.8H296.3z"/>
	<path id="XMLID_99_" class="st10" d="M425.5,326.2c0,0,47.4-26.5,65.7-109c0,0-5.1,78.8-62.7,114.5L425.5,326.2z"/>
	<path id="XMLID_103_" class="st10" d="M436.9,347.2c0,0,33-18.1,47.5-67.7c0,0-7.9,51.4-45,72.3L436.9,347.2z"/>
	<path id="XMLID_127_" class="st11" d="M440,353l-15.4-28.5c0,0-26,24.4-82,24.5c-56.1,0-82-24.5-82-24.5L245,353
		c5.5,6,26.4,24.4,97.4,24.5v0c0,0,0,0,0.1,0c0,0,0,0,0.1,0v0C413.6,377.5,434.6,359,440,353z"/>
	<path id="XMLID_123_" class="st10" d="M259.6,326.2c0,0-47.4-26.5-65.7-109c0,0,5.1,78.8,62.7,114.5L259.6,326.2z"/>
	<path id="XMLID_96_" class="st10" d="M248.2,347.2c0,0-33-18.1-47.5-67.7c0,0,7.9,51.4,45,72.3L248.2,347.2z"/>
	<polygon id="XMLID_125_" class="st10" points="342.5,468.4 365.4,423.4 319.7,423.4 	"/>
	
		<ellipse id="XMLID_53_" transform="matrix(0.8095 -0.5871 0.5871 0.8095 -56.5593 296.0969)" class="st10" cx="428" cy="235.2" rx="4.6" ry="6.2"/>
	
		<ellipse id="XMLID_112_" transform="matrix(0.8095 -0.5871 0.5871 0.8095 -86.5126 203.7749)" class="st10" cx="270.8" cy="235.2" rx="4.6" ry="6.2"/>
</g>
</svg>
